<?xml version="1.0" standalone="no"?><!DOCTYPE svg PUBLIC "-//W3C//DTD SVG 1.1//EN" "http://www.w3.org/Graphics/SVG/1.1/DTD/svg11.dtd"><svg t="1577003877059" class="icon" viewBox="0 0 1078 1024" version="1.1" xmlns="http://www.w3.org/2000/svg" p-id="6447" xmlns:xlink="http://www.w3.org/1999/xlink" width="210.546875" height="200"><defs><style type="text/css"></style></defs><path d="M538.919004 23.119625C241.274038 23.119625 0 269.998421 0 574.703226c0 180.430083 84.610284 340.596811 215.567602 441.266881l0.107784-0.215568c6.467028 5.065839 14.550813 8.191569 23.2813 8.191569a38.317141 38.317141 0 0 0 37.886006-38.802168 38.963844 38.963844 0 0 0-18.646597-33.412978 469.829588 469.829588 0 0 1-102.610178-111.017315l46.50871-27.48487a34.921951 34.921951 0 0 0 12.341245-47.101521 33.251303 33.251303 0 0 0-46.023683-12.610704l-46.50871 27.484869a476.781643 476.781643 0 0 1-44.838061-171.807379h53.460765a34.059681 34.059681 0 0 0 33.682438-34.490816c0-19.077733-15.089732-34.490816-33.682438-34.490816H77.065418c4.311352-61.436766 20.101679-119.586127 45.053628-172.346298l46.293143 27.323194a33.251303 33.251303 0 0 0 46.023683-12.610705 34.921951 34.921951 0 0 0-12.341245-47.047629l-46.185359-27.269302A471.769696 471.769696 0 0 1 278.621125 182.693542l26.622599 47.263197c9.269407 16.490922 29.910005 22.095679 46.023683 12.610705a34.921951 34.921951 0 0 0 12.287353-47.101521l-26.730382-47.424873a450.913531 450.913531 0 0 1 168.412188-46.077574v54.700279c0 19.077733 15.089732 34.490816 33.682438 34.490816a34.059681 34.059681 0 0 0 33.682438-34.490816V101.963476a453.230883 453.230883 0 0 1 167.87327 45.915899l-26.838167 47.586548a34.921951 34.921951 0 0 0 12.341246 47.101521 33.251303 33.251303 0 0 0 45.969791-12.610705l26.838166-47.64044a469.829588 469.829588 0 0 1 123.142993 125.945371l-46.185359 27.269302a34.921951 34.921951 0 0 0-12.341245 47.047629c9.269407 16.490922 29.910005 22.095679 46.023683 12.610705l46.347034-27.323194c25.005842 52.652387 40.688385 110.963423 44.999737 172.346298h-53.460765a34.059681 34.059681 0 0 0-33.682438 34.490816c0 19.077733 15.089732 34.490816 33.682438 34.490816h53.460765a480.500184 480.500184 0 0 1-44.838061 171.807379l-46.50871-27.484869a33.251303 33.251303 0 0 0-46.023683 12.610704 34.921951 34.921951 0 0 0 12.341245 47.101521l46.50871 27.48487a470.476291 470.476291 0 0 1-105.466449 113.172991l0.215567 0.377243a38.963844 38.963844 0 0 0-14.928056 30.880059c0 21.448976 16.922057 38.802168 37.886006 38.802168a37.454871 37.454871 0 0 0 27.053734-11.64065C995.221725 911.581496 1077.838009 752.977633 1077.838009 574.703226 1077.838009 269.998421 836.56397 23.119625 538.919004 23.119625z" p-id="6448" fill="#ffffff"></path><path d="M704.798274 398.853955l-132.304616 105.789801A73.616336 73.616336 0 0 0 538.919004 496.721646c-41.874007 0-75.772012 34.652492-75.772012 77.550445 0 42.844061 33.898005 77.604337 75.772012 77.604337 41.874007 0 75.772012-34.760276 75.772012-77.604337a74.370823 74.370823 0 0 0-1.347297-14.658597l132.951318-106.436503a35.029735 35.029735 0 0 0 5.766433-48.394927 33.143519 33.143519 0 0 0-47.263196-5.928109z" p-id="6449" fill="#ffffff"></path></svg>