<?xml version="1.0" standalone="no"?><!DOCTYPE svg PUBLIC "-//W3C//DTD SVG 1.1//EN" "http://www.w3.org/Graphics/SVG/1.1/DTD/svg11.dtd"><svg t="1579328316015" class="icon" viewBox="0 0 1024 1024" version="1.1" xmlns="http://www.w3.org/2000/svg" p-id="2301" xmlns:xlink="http://www.w3.org/1999/xlink" width="200" height="200"><defs><style type="text/css"></style></defs><path d="M879.872 477.013333h-331.989333V251.306667h108.629333a42.666667 42.666667 0 0 0 42.666667-42.666667V69.930667a42.666667 42.666667 0 0 0-42.666667-42.666667H371.626667a42.666667 42.666667 0 0 0-42.666667 42.666667V208.64a42.666667 42.666667 0 0 0 42.666667 42.666667h106.069333v225.621333H144.512a42.666667 42.666667 0 0 0-42.666667 42.666667V775.808h-32.213333a42.666667 42.666667 0 0 0-42.666667 42.666667v135.68a42.666667 42.666667 0 0 0 42.666667 42.666666H207.36a42.666667 42.666667 0 0 0 42.666667-42.666666v-135.68a42.666667 42.666667 0 0 0-42.666667-42.666667h-30.634667V551.68h300.970667v224.128h-33.749333a42.666667 42.666667 0 0 0-42.666667 42.666667v135.68a42.666667 42.666667 0 0 0 42.666667 42.666666h137.685333a42.666667 42.666667 0 0 0 42.666667-42.666666v-135.68a42.666667 42.666667 0 0 0-42.666667-42.666667h-33.749333V551.68h300.202666v224.128h-31.402666a42.666667 42.666667 0 0 0-42.666667 42.666667v135.68a42.666667 42.666667 0 0 0 42.666667 42.666666h137.685333a42.666667 42.666667 0 0 0 42.666667-42.666666v-135.68a42.666667 42.666667 0 0 0-42.666667-42.666667h-31.829333v-256.170667a42.666667 42.666667 0 0 0-42.666667-42.666666z" fill="#ffffff" p-id="2302"></path></svg>