<?xml version="1.0" standalone="no"?><!DOCTYPE svg PUBLIC "-//W3C//DTD SVG 1.1//EN" "http://www.w3.org/Graphics/SVG/1.1/DTD/svg11.dtd"><svg t="1577004398756" class="icon" viewBox="0 0 1102 1024" version="1.1" xmlns="http://www.w3.org/2000/svg" p-id="7266" xmlns:xlink="http://www.w3.org/1999/xlink" width="215.234375" height="200"><defs><style type="text/css"></style></defs><path d="M0 0m47.261538 0l1008.246154 0q47.261538 0 47.261539 47.261538l0 0q0 47.261538-47.261539 47.261539l-1008.246154 0q-47.261538 0-47.261538-47.261539l0 0q0-47.261538 47.261538-47.261538Z" p-id="7267" fill="#707070"></path><path d="M0 433.230769m47.261538 0l1008.246154 0q47.261538 0 47.261539 47.261539l0 0q0 47.261538-47.261539 47.261538l-1008.246154 0q-47.261538 0-47.261538-47.261538l0 0q0-47.261538 47.261538-47.261539Z" p-id="7268" fill="#707070"></path><path d="M0 866.461538m47.261538 0l1008.246154 0q47.261538 0 47.261539 47.261539l0 0q0 47.261538-47.261539 47.261538l-1008.246154 0q-47.261538 0-47.261538-47.261538l0 0q0-47.261538 47.261538-47.261539Z" p-id="7269" fill="#707070"></path></svg>